<?xml version="1.0" encoding="UTF-8"?>
<svg id="Layer_2" data-name="Layer 2" xmlns="http://www.w3.org/2000/svg" xmlns:xlink="http://www.w3.org/1999/xlink" viewBox="0 0 340.26 171.95">
  <defs>
    <style>
      .cls-1 {
        fill: none;
      }

      .cls-2 {
        fill: url(#New_Gradient_Swatch_1-2);
      }

      .cls-3 {
        fill: url(#New_Gradient_Swatch_1-6);
      }

      .cls-4 {
        fill: url(#New_Gradient_Swatch_1-3);
      }

      .cls-5 {
        fill: url(#New_Gradient_Swatch_1-5);
      }

      .cls-6 {
        fill: url(#New_Gradient_Swatch_1-4);
      }

      .cls-7 {
        clip-path: url(#clippath-1);
      }

      .cls-8 {
        clip-path: url(#clippath-3);
      }

      .cls-9 {
        clip-path: url(#clippath-4);
      }

      .cls-10 {
        clip-path: url(#clippath-2);
      }

      .cls-11 {
        clip-path: url(#clippath-7);
      }

      .cls-12 {
        clip-path: url(#clippath-6);
      }

      .cls-13 {
        clip-path: url(#clippath-5);
      }

      .cls-14 {
        fill: url(#New_Gradient_Swatch_1);
      }

      .cls-15 {
        clip-path: url(#clippath);
      }
    </style>
    <clipPath id="clippath">
      <rect class="cls-1" width="340.26" height="171.95"/>
    </clipPath>
    <clipPath id="clippath-1">
      <path class="cls-1" d="M76.56,154.26v.1c0,9.82,7.48,17.6,17.55,17.6,6.6,0,10.51-2.35,14.03-6.11l-4.79-4.84c-2.69,2.44-5.08,4.01-8.99,4.01-5.87,0-9.92-4.89-9.92-10.75v-.1c0-5.86,4.15-10.65,9.92-10.65,3.42,0,6.11,1.47,8.75,3.86l4.79-5.52c-3.18-3.13-7.04-5.28-13.49-5.28-10.51,0-17.84,7.97-17.84,17.69"/>
    </clipPath>
    <linearGradient id="New_Gradient_Swatch_1" data-name="New Gradient Swatch 1" x1="672.6" y1="321.86" x2="673.32" y2="321.86" gradientTransform="translate(-90392.83 189432.83) rotate(-90) scale(281.14)" gradientUnits="userSpaceOnUse">
      <stop offset="0" stop-color="#d85d38"/>
      <stop offset=".03" stop-color="#d85d38"/>
      <stop offset=".1" stop-color="#de6d4d"/>
      <stop offset=".46" stop-color="#f79675"/>
      <stop offset=".73" stop-color="#d85d38"/>
      <stop offset=".88" stop-color="#de6d4d"/>
      <stop offset=".95" stop-color="#f79675"/>
      <stop offset="1" stop-color="#f79675"/>
    </linearGradient>
    <clipPath id="clippath-2">
      <path class="cls-1" d="M120.25,154.26v-.1c0-5.86,4.2-10.65,10.26-10.65s10.36,4.89,10.36,10.75v.1c0,5.87-4.2,10.66-10.26,10.66s-10.36-4.89-10.36-10.75M112.38,154.26v.1c0,9.73,7.58,17.6,18.13,17.6s18.23-7.97,18.23-17.69v-.1c0-9.73-7.58-17.6-18.13-17.6s-18.23,7.97-18.23,17.69"/>
    </clipPath>
    <linearGradient id="New_Gradient_Swatch_1-2" data-name="New Gradient Swatch 1" x1="672.6" y1="321.85" x2="673.32" y2="321.85" gradientTransform="translate(-90354.37 189394.61) rotate(-90) scale(281.14)" xlink:href="#New_Gradient_Swatch_1"/>
    <clipPath id="clippath-3">
      <path class="cls-1" d="M163.7,143.94h5.82c3.76,0,6.11,1.81,6.11,5.18v.1c0,2.93-2.2,5.18-5.96,5.18h-5.96v-10.46ZM156.18,137.15v34.22h7.53v-10.26h5.72c7.67,0,13.83-4.11,13.83-12.02v-.1c0-6.99-4.94-11.83-13.1-11.83h-13.98Z"/>
    </clipPath>
    <linearGradient id="New_Gradient_Swatch_1-3" data-name="New Gradient Swatch 1" x1="672.6" y1="321.85" x2="673.32" y2="321.85" gradientTransform="translate(-90314.97 189355.46) rotate(-90) scale(281.14)" xlink:href="#New_Gradient_Swatch_1"/>
    <clipPath id="clippath-4">
      <path class="cls-1" d="M197.09,143.94h5.82c3.76,0,6.11,1.81,6.11,5.18v.1c0,2.93-2.2,5.18-5.96,5.18h-5.96v-10.46ZM189.56,137.15v34.22h7.53v-10.26h5.72c7.67,0,13.83-4.11,13.83-12.02v-.1c0-6.99-4.94-11.83-13.1-11.83h-13.98Z"/>
    </clipPath>
    <linearGradient id="New_Gradient_Swatch_1-4" data-name="New Gradient Swatch 1" x1="672.6" y1="321.85" x2="673.32" y2="321.85" gradientTransform="translate(-90281.36 189322.09) rotate(-90) scale(281.14)" xlink:href="#New_Gradient_Swatch_1"/>
    <clipPath id="clippath-5">
      <polygon class="cls-1" points="222.94 137.15 222.94 171.37 222.96 171.37 249 171.37 249 164.67 230.42 164.67 230.42 157.48 246.55 157.48 246.55 150.79 230.42 150.79 230.42 143.85 248.75 143.85 248.75 137.15 222.94 137.15"/>
    </clipPath>
    <linearGradient id="New_Gradient_Swatch_1-5" data-name="New Gradient Swatch 1" x1="672.6" y1="321.85" x2="673.32" y2="321.85" gradientTransform="translate(-90248.27 189289.23) rotate(-90) scale(281.14)" xlink:href="#New_Gradient_Swatch_1"/>
    <clipPath id="clippath-6">
      <path class="cls-1" d="M263.95,143.94h7.48c3.67,0,5.91,1.66,5.91,4.89v.1c0,2.88-2.1,4.84-5.77,4.84h-7.62v-9.82ZM256.43,137.15v34.22h7.53v-10.95h5.91l7.33,10.95h8.8l-8.36-12.22c4.35-1.61,7.33-5.08,7.33-10.61v-.1c0-3.23-1.03-5.91-2.93-7.82-2.25-2.25-5.62-3.47-9.97-3.47h-15.64Z"/>
    </clipPath>
    <linearGradient id="New_Gradient_Swatch_1-6" data-name="New Gradient Swatch 1" x1="672.6" y1="321.85" x2="673.32" y2="321.85" gradientTransform="translate(-90212.8 189253.99) rotate(-90) scale(281.14)" xlink:href="#New_Gradient_Swatch_1"/>
    <clipPath id="clippath-7">
      <rect class="cls-1" width="340.26" height="171.95"/>
    </clipPath>
  </defs>
  <g id="Layer_1-2" data-name="Layer 1">
    <g id="S-Gel_Copper_stacked" data-name="S-Gel Copper stacked">
      <g class="cls-15">
        <g class="cls-7">
          <rect class="cls-14" x="74.39" y="138.18" width="35.91" height="32.16" transform="translate(-63.43 244.02) rotate(-89.05)"/>
        </g>
        <g class="cls-10">
          <rect class="cls-2" x="112.57" y="135.78" width="35.99" height="36.95" transform="translate(-25.85 282.23) rotate(-89.05)"/>
        </g>
        <g class="cls-8">
          <rect class="cls-4" x="152.39" y="140.43" width="34.66" height="27.65" transform="translate(12.65 321.38) rotate(-89.05)"/>
        </g>
        <g class="cls-9">
          <rect class="cls-6" x="185.77" y="140.43" width="34.66" height="27.64" transform="translate(45.48 354.76) rotate(-89.05)"/>
        </g>
        <g class="cls-13">
          <rect class="cls-5" x="218.65" y="140.95" width="34.64" height="26.62" transform="translate(77.8 387.62) rotate(-89.05)"/>
        </g>
        <g class="cls-12">
          <rect class="cls-3" x="253.86" y="139.19" width="34.7" height="30.14" transform="translate(112.46 422.86) rotate(-89.05)"/>
        </g>
        <g class="cls-11">
          <path d="M283.69,31.37l.69.04.93,1.61.55.03-.97-1.66c.63.02,1.13-.25,1.16-.94.05-.77-.56-.97-1.2-1.01l-1.55-.08-.19,3.53.49.03.1-1.55ZM283.77,29.8l.95.05c.37.02.85.08.84.55-.02.35-.21.63-.91.59l-.94-.05.07-1.14ZM284.2,34.34c1.75.1,3.24-1.22,3.33-2.98.09-1.73-1.24-3.23-2.99-3.34-1.75-.09-3.24,1.25-3.34,2.99-.1,1.76,1.24,3.24,2.99,3.33M284.53,28.52c1.46.08,2.57,1.34,2.49,2.78-.09,1.5-1.33,2.62-2.8,2.54-1.47-.08-2.59-1.34-2.5-2.82.08-1.45,1.33-2.58,2.81-2.5M77.94,79.81c-9.42,23.57-44.09,29.19-59.91,30.79-7.83.42-14.95-1.07-16.33-2.97-1.83-1.52-2.55-5.48-.34-6.54,2.02-.96,2.9-.81,4.89-.66,38.48,4.72,61.09-12.47,62.17-23.68,1.4-13.73-45.08-9.68-51.14-24.02-7.71-18.25,25.39-31.2,37.48-34.12,8.36-2.02,23.17-2.49,26.35,4.66,4.67,10.5-12.23,21.52-17,24.42-4.41,1.83-9.08-1.05-6.51-5.74,12.88-7.53,18.11-14.32,14.44-16.25-12.28-6.48-46.94,11.7-47.15,19.37-.12,4.23,3.36,6.72,20.42,9.43,18.54,3.67,37.78,8.57,32.62,25.31M202.62,29.26c-.67-3.09,1.89-7.18-.35-10.22-6.32-8.58-7.29,10.07-8.25,25.31-1.11,17.27-9.58,23.18-11.49,21.98-5.63-4.34,6.1-22.27,2.64-33.08-1.95-6.1-7.93-5.49-15.71-2.28-.03-3.2.55-8.6-1.97-8-4.53,1.1-5.52,3.73-6.31,10.49-2.1,1.06-6.81,1.91-7.16,3.38-.92,3.99,2.98,5.5,6.98,4.77,1.34-.51-1.39,16.11-2.05,18.63-1.54,5.85-3.74,12.92-8.54,10.89-6.2-2.65,5.74-28.94-2.98-29.47-4.35-11.04-15.13-8.87-21.16,1.13-3.83,5.97-4.41,12.7-4.84,18.8-.1,1.44-.18,5-.25,6.32-.19,3.51-7.58,13.97-9.32,11.63-4.38-5.77,6.15-26.31,1.05-34.81-3.74-6.24-9.49-3.44-18.47,1.01,0,0,3.22-27.93-.97-30.63-1.64-2.05-4.33.43-5.67,1.33-2.42,3.1.34,16.52-2.12,33.04-.45,2.99-7.96,2.25-8.38,3.97-1.87,5.85,3.17,8.84,7.64,6.61,2.07-.11-8.78,40.72,6.69,32.21,1.03-1.02-1.28-5.19,2.18-36.31.78-2.83,8.99-6.17,10.42-5.39,1.16.63,1.24,1.11,1.29,2.14-.27,16.39-7.15,29.39-.01,34.81.86.64,1.68,1.09,2.46,1.39,1.36.47,3.87.24,6.59-1.14,4.2-2.21,7.03-6.5,9.52-9.47.64,1.85,1.65,3.88,2.94,4.99,5.71,4.57,12.68.46,17.4-7.58,6.6,9.52,15.4,6.27,19.6-6.03,4.04-11.81,4.47-25.74,5.62-30.37.14-.58,4.75-2.5,6.68-2.27,6.15.73-7.85,26.69-.74,34.92,7.1,9.22,15.53-2.35,17.76-4.87.4,21.28,1.56,26.19,7.82,23.23,3.71-1.75-4.94-30.95,3.46-50.34,2.05-4.75,4.58-9.63,9.74-9.62,9.78,1.19,1.15,43.16-5.34,29.97-.2-.51-.35-1.37-.35-2.22-.03-2.33,1.09-7.07-2.1-4.78-6.22,8.57-1.36,17.08,4.73,17.09,3.45-.14,6.89-2.25,9.09-5.08,2.34-3.19,3.75-7.97,4.78-14.69,2.54-20.13-3.43-25.33-4.72-27.21-7.2-8.33-17.64,5.8-17.85,5.78M141.65,45.63c-1.06,13.28-2.47,31.47-8.67,29.28-6.37-6.1-3.48-28.73,4.83-32.24,1.59-.68,3.34-.04,5.01.35-.87.56-1.2,1.45-1.16,2.6M237.53,6.49c.9-4.01,3.92-6.9,6.73-6.44,2.81.46,4.35,4.07,3.44,8.08-.91,4-3.93,6.89-6.74,6.43-2.81-.44-4.36-4.07-3.43-8.07M284.42,40.26c-.62-.2-1.87-.16-2.75.22-.9.5-1.49,7.91-4.32,12.72-2.44,4.18-11.67,8.75-17.85,2.08,0,0,8.59-8.35,11.06-20.35,2.92-15.23-3.98-25.34-12.41-21.5-9.6,4.23-12.42,17.84-12.25,27.47.23,5.79,1.89,9.88,3.6,13.41-5.77,4.49-11.81,3.82-11.79-5.8-.05-15.67,10.99-30.75,2.79-30.29-4.42.26-8.17,9.64-10.18,21.46-1.82,12.64-1.21,17.52,3.48,22.31,7.64,7.01,19.53-1.45,20.01-1.54.87.79,2.41,1.93,3.32,2.52,5.11,3.17,11.46,3.39,16.71,1.63,2.53-.84,5.24-2.42,6.94-4.13,3.09-3.1,5.56-8.26,5.95-13.09.3-3.56-.43-6.52-2.29-7.13M255.68,48.91c-4.49-6.47-.22-22.51,3.33-26.13,1.27-1.3,2.63-1.12,3.19-.68,2,1.96,3.15,14.67-6.52,26.82"/>
          <path d="M204.85,114.56c-.53-.47-.89-1.3-.89-2.08,0-.74.32-1.31.88-1.58.94-.45,1.45-.41,2.22-.35l.22.02c9.46,1.16,18.25-.68,23.53-4.91,2.07-1.66,3.35-3.54,3.5-5.16,0-.07.01-.15.01-.22,0-2.5-5.08-3.54-10-4.54-5.52-1.13-11.23-2.3-12.65-5.65-.36-.86-.55-1.73-.55-2.6,0-7.32,12.96-12.09,17.49-13.18,3.91-.95,10.68-1.15,12.23,2.33.26.6.4,1.22.4,1.86,0,4.16-5.68,8.08-8.12,9.56l-.03.02h-.03c-1.03.44-2.16.38-2.95-.15-.59-.4-.92-1-.92-1.7,0-.44.13-.89.38-1.36l.06-.12.11-.07c4.59-2.68,6.67-4.98,6.68-5.99,0-.13-.03-.26-.25-.38-3.09-1.63-10.12.63-15.17,3.58-3.45,2.02-5.01,3.76-5.04,4.6v.08c0,1.45,1.38,2.46,8.67,3.62,7.7,1.52,15.23,3.5,15.23,9.39,0,.76-.13,1.59-.41,2.48-2.13,5.34-8.54,12.09-26.98,13.95-3.05.16-6.7-.34-7.61-1.46M246.69,93.94c-1.81,0-3.27,1.46-3.27,3.27s1.46,3.27,3.27,3.27,3.27-1.46,3.27-3.27-1.46-3.27-3.27-3.27M313.24,114.32v-6.21h-17.53v-9.55h14.14v-6.15h-14.14v-8.98h17.53v-6.16h-23.98v37.05h23.98ZM340.26,114.32v-6.46h-16.11v-30.59h-6.46v37.05h22.57ZM279.02,113.36c2.07-.64,3.96-1.66,5.62-3.04l.17-.14v-17.68h-14.54l-3.65,6.16h11.17v7.77c-.57.38-1.3.69-2.18.93-1,.27-1.99.41-2.95.41-1.75,0-3.4-.33-4.91-.97-1.52-.65-2.86-1.55-3.99-2.68-1.13-1.13-2.03-2.47-2.68-3.99-1.28-3-1.3-6.71,0-9.78.65-1.52,1.55-2.86,2.68-3.99,1.13-1.13,2.47-2.04,4-2.7,1.52-.66,3.17-1,4.91-1,.9,0,1.8.11,2.67.32.88.21,1.7.48,2.45.81.74.32,1.42.7,2.01,1.12.59.42,1.09.84,1.46,1.25l.12.13,3.56-6.01-.33-.23c-.61-.44-1.32-.92-2.1-1.41-.8-.5-1.71-.96-2.71-1.35-1-.4-2.11-.73-3.31-.98-1.21-.26-2.57-.39-4.04-.39-2.64,0-5.16.51-7.49,1.5-2.32,1-4.37,2.38-6.11,4.12-1.74,1.74-3.12,3.79-4.12,6.11-1,2.32-1.5,4.84-1.5,7.49s.51,5.17,1.5,7.49c1,2.32,2.38,4.37,4.12,6.11,1.73,1.74,3.79,3.12,6.11,4.12,2.32,1,4.84,1.5,7.49,1.5,2.3,0,4.5-.32,6.56-.96M327.34,80.85h.79v-2.85h1.09v-.73h-2.96v.73h1.09v2.85ZM329.82,80.85h.77v-2.32l1,1.51h.02l1.01-1.53v2.33h.78v-3.58h-.85l-.94,1.51-.94-1.51h-.85v3.58Z"/>
        </g>
      </g>
    </g>
  </g>
</svg>