<?xml version="1.0" encoding="UTF-8"?>
<svg id="Layer_2" xmlns="http://www.w3.org/2000/svg" version="1.1" viewBox="0 0 736.8 54.4">
  <!-- Generator: Adobe Illustrator 29.1.0, SVG Export Plug-In . SVG Version: 2.1.0 Build 142)  -->
  <defs>
    <style>
      .st0 {
        isolation: isolate;
      }
    </style>
  </defs>
  <g id="Layer_1-2">
    <g class="st0">
      <g class="st0">
        <path d="M203.4,5.4h6l6.6,10.7,6.6-10.7h6v25.2h-5.5V14.1l-7.1,10.8h-.1l-7-10.7v16.3h-5.4V5.4Z"/>
        <path d="M257.2,5.2h5.1l10.8,25.4h-5.8l-2.3-5.7h-10.7l-2.3,5.7h-5.7l10.8-25.4ZM263.1,20.1l-3.3-8.2-3.3,8.2h6.7Z"/>
      </g>
      <g class="st0">
        <path d="M291.1,5.4h5.5v11l10.2-11h6.7l-10.3,10.7,10.7,14.5h-6.7l-7.8-10.7-2.9,3v7.7h-5.5V5.4Z"/>
      </g>
      <g class="st0">
        <path d="M331.6,5.4h19v4.9h-13.5v5.1h11.9v4.9h-11.9v5.3h13.7v4.9h-19.2V5.4Z"/>
      </g>
      <g class="st0">
        <path d="M402.4,20.7l-9.7-15.3h6.5l6,10.1,6.1-10.1h6.3l-9.7,15.2v10h-5.5v-9.9Z"/>
      </g>
      <g class="st0">
        <path d="M432,18.1h0c0-7.2,5.7-13.1,13.4-13.1s13.4,5.8,13.4,13h0c0,7.2-5.7,13.1-13.4,13.1s-13.4-5.8-13.4-13ZM453,18.1h0c0-4.4-3.2-8-7.6-8s-7.6,3.5-7.6,7.8h0c0,4.4,3.2,8,7.6,8s7.6-3.5,7.6-7.8Z"/>
      </g>
      <g class="st0">
        <path d="M477.7,19.8V5.4h5.5v14.3c0,4.1,2.1,6.2,5.4,6.2s5.4-2.1,5.4-6V5.4h5.5v14.2c0,7.6-4.3,11.4-11.1,11.4s-10.9-3.8-10.9-11.2Z"/>
      </g>
      <g class="st0">
        <path d="M519.9,5.4h11.5c3.2,0,5.7.9,7.3,2.6s2.2,3.4,2.2,5.8h0c0,4.1-2.2,6.7-5.4,7.9l6.2,9h-6.5l-5.4-8.1h-4.4v8.1h-5.5V5.4ZM531.1,17.6c2.7,0,4.2-1.4,4.2-3.6h0c0-2.4-1.7-3.7-4.4-3.7h-5.5v7.2h5.6Z"/>
      </g>
      <g class="st0">
        <path d="M585.5,5.4h6l6.6,10.7,6.6-10.7h6v25.2h-5.5V14.1l-7.1,10.8h-.1l-7-10.7v16.3h-5.4V5.4Z"/>
        <path d="M639.4,5.2h5.1l10.8,25.4h-5.8l-2.3-5.7h-10.7l-2.3,5.7h-5.7l10.8-25.4ZM645.2,20.1l-3.3-8.2-3.3,8.2h6.7Z"/>
      </g>
      <g class="st0">
        <path d="M673.3,5.4h11.5c3.2,0,5.7.9,7.3,2.6,1.4,1.4,2.2,3.4,2.2,5.8h0c0,4.1-2.2,6.7-5.4,7.9l6.2,9h-6.5l-5.4-8.1h-4.4v8.1h-5.5V5.4ZM684.5,17.6c2.7,0,4.2-1.4,4.2-3.6h0c0-2.4-1.7-3.7-4.4-3.7h-5.5v7.2h5.6Z"/>
      </g>
      <g class="st0">
        <path d="M713.7,5.4h5.5v11l10.2-11h6.7l-10.3,10.7,10.7,14.5h-6.7l-7.8-10.7-2.9,3v7.7h-5.5V5.4Z"/>
      </g>
    </g>
  </g>
</svg>